<?xml version="1.0" encoding="UTF-8" standalone="no"?>
<!-- Created with Inkscape (http://www.inkscape.org/) -->

<svg
   xmlns:dc="http://purl.org/dc/elements/1.1/"
   xmlns:cc="http://creativecommons.org/ns#"
   xmlns:rdf="http://www.w3.org/1999/02/22-rdf-syntax-ns#"
   xmlns:svg="http://www.w3.org/2000/svg"
   xmlns="http://www.w3.org/2000/svg"
   xmlns:sodipodi="http://sodipodi.sourceforge.net/DTD/sodipodi-0.dtd"
   xmlns:inkscape="http://www.inkscape.org/namespaces/inkscape"
   width="100mm"
   height="100mm"
   viewBox="0 0 99.999971 100"
   version="1.1"
   id="svg8"
   inkscape:version="0.92.4 (unknown)"
   sodipodi:docname="triple-blue-uld.svg">
  <defs
     id="defs2" />
  <sodipodi:namedview
     id="base"
     pagecolor="#ffffff"
     bordercolor="#666666"
     borderopacity="1.0"
     inkscape:pageopacity="0.0"
     inkscape:pageshadow="2"
     inkscape:zoom="1"
     inkscape:cx="157.30193"
     inkscape:cy="293.76073"
     inkscape:document-units="mm"
     inkscape:current-layer="layer1"
     showgrid="true"
     inkscape:window-width="1918"
     inkscape:window-height="1046"
     inkscape:window-x="1"
     inkscape:window-y="16"
     inkscape:window-maximized="1"
     units="mm">
    <inkscape:grid
       type="xygrid"
       id="grid3721" />
  </sodipodi:namedview>
  <metadata
     id="metadata5">
    <rdf:RDF>
      <cc:Work
         rdf:about="">
        <dc:format>image/svg+xml</dc:format>
        <dc:type
           rdf:resource="http://purl.org/dc/dcmitype/StillImage" />
        <dc:title />
      </cc:Work>
    </rdf:RDF>
  </metadata>
  <g
     inkscape:label="Layer 1"
     inkscape:groupmode="layer"
     id="layer1"
     transform="translate(0,-197)">
    <path
       style="fill:#000080;stroke-width:1.14830303"
       d="M 0,151.18164 A 226.77165,226.77165 0 0 0 -226.77148,377.95312 226.77165,226.77165 0 0 0 0,604.72461 226.77165,226.77165 0 0 0 226.77148,377.95312 226.77165,226.77165 0 0 0 0,151.18164 Z m 0,75.58984 A 151.1811,151.1811 0 0 1 151.18164,377.95312 151.1811,151.1811 0 0 1 0,529.13477 151.1811,151.1811 0 0 1 -151.18164,377.95312 151.1811,151.1811 0 0 1 0,226.77148 Z"
       transform="matrix(0.26458333,0,0,0.26458333,0,197)"
       id="path3723"
       inkscape:connector-curvature="0" />
    <path
       style="fill:#000080;stroke-width:1.14830303"
       d="M 0,-226.77148 A 226.77165,226.77165 0 0 0 -226.77148,0 226.77165,226.77165 0 0 0 0,226.77148 226.77165,226.77165 0 0 0 226.77148,0 226.77165,226.77165 0 0 0 0,-226.77148 Z m 0,75.58984 A 151.1811,151.1811 0 0 1 151.18164,0 151.1811,151.1811 0 0 1 0,151.18164 151.1811,151.1811 0 0 1 -151.18164,0 151.1811,151.1811 0 0 1 0,-151.18164 Z"
       transform="matrix(0.26458333,0,0,0.26458333,0,197)"
       id="path3723-3"
       inkscape:connector-curvature="0" />
  </g>
</svg>
